<svg xmlns="http://www.w3.org/2000/svg" width="130" height="130" fill="none"><path stroke="#3D2C20" stroke-linecap="round" stroke-linejoin="round" stroke-width="10" d="m5 125 73.333-.001V27.525c0-8.858 0-13.287-1.875-16.356-1.645-2.692-4.233-4.714-7.287-5.694-3.483-1.117-7.922-.157-16.799 1.765l-17.333 3.752c-5.961 1.29-8.941 1.935-11.166 3.496a13.06 13.06 0 0 0-4.458 5.413c-1.082 2.454-1.082 5.428-1.082 11.376V125m59.96-103.899h12.04c7.468 0 11.202 0 14.054 1.416a13.17 13.17 0 0 1 5.826 5.676c1.454 2.778 1.454 6.414 1.454 13.688V125H125M58.333 66.557h.067"/></svg>