<svg xmlns="http://www.w3.org/2000/svg" viewBox="0 0 169.56 150.17"><g data-name="Calque 2"><g data-name="Calque 1"><path d="m106.83 93.51 57.73-55.9-13.87-13.44m-6.94 33.61-13.87-13.45m-76.32 70.59c0-16.71 14-30.25 31.22-30.25S116 98.21 116 114.92s-14 30.25-31.22 30.25-31.22-13.55-31.22-30.25" style="fill:none;stroke-linecap:round;stroke-linejoin:round;stroke-width:10px;stroke:#a67c52"/><path d="M62.73 56.66 5 112.56 18.88 126m6.93-33.61 13.88 13.44M116 35.25C116 52 102 65.5 84.78 65.5S53.56 52 53.56 35.25 67.54 5 84.78 5 116 18.54 116 35.25" style="fill:none;stroke-linecap:round;stroke-linejoin:round;stroke-width:10px;stroke:#3d2c20"/></g></g></svg>