<svg xmlns="http://www.w3.org/2000/svg" viewBox="0 0 169.56 150.17"><defs><style>.cls-1,.cls-2{fill:none;stroke-linecap:round;stroke-linejoin:round;stroke-width:10px;}.cls-1{stroke:#a67c52;}.cls-2{stroke:#3d2c20;}</style></defs><g id="Calque_2" data-name="Calque 2"><g id="Calque_1-2" data-name="Calque 1"><path class="cls-1" d="M106.83,93.51l57.73-55.9L150.69,24.17m-6.94,33.61L129.88,44.33M53.56,114.92c0-16.71,14-30.25,31.22-30.25S116,98.21,116,114.92s-14,30.25-31.22,30.25S53.56,131.62,53.56,114.92Z"/><path class="cls-2" d="M62.73,56.66,5,112.56,18.88,126m6.93-33.61,13.88,13.44M116,35.25C116,52,102,65.5,84.78,65.5S53.56,52,53.56,35.25,67.54,5,84.78,5,116,18.54,116,35.25Z"/></g></g></svg>