<svg xmlns="http://www.w3.org/2000/svg" width="110" height="75" fill="none"><path fill="#F5EFE6" d="m60.807 10.719.39.015q2.032.063 2.063 1.36v.015q0 1.173-1.266 1.5l-1.11.5q-.39.267-.75 1.141-2.265 2.063-3.015 3.156-.328.25-1.156 1.547-.797.532-.812 1.14 0 .063.812 1.016.344 1.25.61 1.735l1.109 1.312.047.25q.672 1.36 1.375 2.078l1.234 1.875q.375.579.969.688 1.468.046 2.125.922-.14 1.968-1.219 2.078l-.86.344-.874-.157-1.75.188-.953-.266-.797.094q-2.016-.64-2.016-1.812v-.063q0-.874 1.313-1.312v-.016q-.204-.969-.985-1.985-.468-1.437-.969-2.187a8.5 8.5 0 0 1-.843-1.281q-.72-.953-.907-.953l-.218.03-.36.626q-.578.546-.593 1.047l.28 3.718q.345 1.266.907 1.282 1.438.828 1.438 1.468v.032q-.032.953-1.766 1.703l-.484.11-1.25-.423h-.235l-1.125.22q-.655-.204-2.11-.392-1.28-.765-1.28-1.5v-.03q.03-.861 1.171-1.188 1.157-.328 1.313-1.125.125-.735.281-1.532 0-.437-.047-.968l-.047-1.188.313-3.14.11-2.297.062-.516-.203-1.11.093-1.03-.218-2.97v-.046q0-.735-.391-.735-.047 0-.406.047l-1.14-1.03q.06-1.642 2.343-1.876h.344l1.093.219h.016l1.313-.266 1.921.406q.735.704.735 1.36v.031q0 .61-.75.89-.75.267-1.61.673v.015q0 .11-.187 1.688l.219 1.265-.032.578-.078 1.375.235.125q.14-.108.265-.421 2.313-2 2.688-3.282 1.422-1.374 1.437-1.859l-.578-.172q-.531-.703-.594-1.297v-.078q0-.843 1.672-1.297h.203l1.25.203q1.454-.265 2.157-.265zM44.229 36.563h20.578v2.343H44.229z"/><path fill="#F5EFE6" d="M41.286 44.87c3.468 0 6.278-2.94 6.278-6.56s-2.81-6.56-6.278-6.56-6.278 2.94-6.278 6.56 2.81 6.56 6.278 6.56"/><path stroke="#F5EFE6" stroke-miterlimit="10" stroke-width="3" d="M69.279 38.31c0 15.92-12.357 28.83-27.604 28.83S14.07 54.23 14.07 38.31 26.428 9.48 41.675 9.48"/><path fill="#F5EFE6" d="M30.892 22.4c-3.268 2.56-5.132 6.16-6.367 10.09-1.316 3.91-1.973 7.85-1.226 11.91-.887-1.91-1.306-4.02-1.385-6.15-.28-6.4 3.388-12.72 8.988-15.85zM11.27 58.71a577 577 0 0 1 29.378-21.43l1.286 2.07c-2.133 1.48-5.331 3.58-7.544 5.03-7.573 4.89-15.356 9.88-23.12 14.33"/><path fill="#F5EFE6" d="M41.476 55.99c-5.6.37-11.221-3.07-14.171-8.76l.668-.51c2.82 5.38 8.151 8.59 13.453 8.2l.05 1.06zM53.195 54.5c4.783-4.37 7.872-10.4 8.45-16.65l1.495.18c-1.116 6.41-4.684 12.33-9.945 16.47M32.248 44.97c-4.634-4.13-3.837-11 1.415-14.57-4.445 4.14-4.863 9.92-1.415 14.57"/><path fill="#F5EFE6" d="m41.017 75-1.186-36.7 2.89.02c-.09 0-1.465 36.86-1.714 36.68z"/><path fill="#F5EFE6" d="m41.286 0 1.425 38.31.04 1.04a.46.46 0 0 1-.468.48l-.987-.03-32.198-.99c-.588-.02-.598-.88-.01-.92l30.863-1.87z"/><path fill="#F5EFE6" d="m81.347 38.31-40.06 1.15s-.02-.01-.02-.02v-2.41s.02-.02.03-.02l40.05 1.26s.03.04 0 .05zM13.573 31.95c-.12.57-.977 3.43-2.462 4.77-1.754 1.58-4.683 1.58-5.192 1.57 2.183 0 5.282.05 7.464.06-.08-1.74.27-4.67.2-6.41z"/><path fill="#F5EFE6" d="M6.796 38.51c2.412.3 4.305 1.35 4.684 1.85.578.76.937 2.04 1.664 4.6.16.58.947 2.84 1.027 3.16-.15-2.7-.947-7.17-1.096-9.87-1.804.07-4.475.19-6.279.26M78.028 38.49c-3.757.26-5.44 1.46-6.248 2.59-.887 1.24-1.535 3.45-2.65 7.21 0 0-.479 1.62-.658 1.59-.05 0-.03-.21-.14-.02.08-1.46 1.246-9.92 1.326-11.38 2.78 0 5.6.01 8.38 0z"/><path stroke="#F5EFE6" stroke-miterlimit="10" d="M18.366 23.18c1.824 2.64 3.637 5.28 5.461 7.92M25.501 27.6l-9.138-.7"/><path fill="#F5EFE6" d="m31.112 29.46-4.724-3.23.389-.49 4.335 3.73z"/><path stroke="#F5EFE6" stroke-miterlimit="10" d="M31.61 52.4c-1.744 3.11-3.498 6.21-5.242 9.32M27.305 62.93c1.883-3.36 3.767-6.71 5.65-10.07M53.773 64.23c-.578-2.37-1.146-4.74-1.714-7.11 1.534 1.73 3.06 3.47 4.594 5.2M58.586 47.56c2.442 1.52 4.873 3.05 7.314 4.57M63.678 55.72l-4.275-4.8 5.8 2.46"/><path fill="#F5EFE6" d="M51.002 47.04c1.236-1.77 1.565-4.19.967-6.27-.2-.67-.478-1.3-.887-1.84l3.588-.76a17.47 17.47 0 0 1-3.598 8.93l-.08-.06zM34.998 39.4c.04.21.09.58-.03 1.02-.2.76-.638 1.22-.807 1.33.927-.35 1.754-.77 2.67-1.12-.617-.41-1.225-.82-1.843-1.23z"/><path fill="#F5EFE6" d="m86.439 38.34-40.499.7-.349-1.54zM40.838 37.19l-.329 1.55L0 38.47z"/></svg>